<svg width="116" height="16" viewBox="0 0 116 16" fill="none" xmlns="http://www.w3.org/2000/svg">
<g clip-path="url(#clip0_8_5)">
<path d="M51.2843 0.969727C52.7967 0.969727 53.9636 1.43374 54.7851 2.36177C55.6066 3.27086 56.0174 4.81442 56.0174 6.99245V13.1288C56.0174 13.9053 55.7747 14.4925 55.2892 14.8902C54.8225 15.269 54.2343 15.4584 53.5248 15.4584C52.8153 15.4584 52.2179 15.269 51.7324 14.8902C51.2657 14.4925 51.0323 13.9053 51.0323 13.1288V6.87882C51.0323 6.12124 50.9016 5.59094 50.6402 5.28791C50.3788 4.98488 49.996 4.83336 49.4919 4.83336C48.8384 4.83336 48.3156 5.0701 47.9236 5.54359C47.5315 6.01707 47.3354 6.67048 47.3354 7.50382V13.1288C47.3354 13.9053 47.102 14.4925 46.6353 14.8902C46.1685 15.269 45.571 15.4584 44.8428 15.4584C44.1333 15.4584 43.5359 15.269 43.0504 14.8902C42.5837 14.4925 42.3503 13.9053 42.3503 13.1288V6.87882C42.3503 6.12124 42.2196 5.59094 41.9582 5.28791C41.6968 4.98488 41.314 4.83336 40.8099 4.83336C40.1564 4.83336 39.6337 5.0701 39.2416 5.54359C38.8681 6.01707 38.6814 6.67048 38.6814 7.50382V13.1288C38.6814 13.9053 38.4387 14.4925 37.9533 14.8902C37.4865 15.269 36.8984 15.4584 36.1889 15.4584C35.4794 15.4584 34.8819 15.269 34.3964 14.8902C33.9297 14.4925 33.6963 13.9053 33.6963 13.1288V3.29927C33.6963 2.56064 33.939 2.00192 34.4245 1.62313C34.9286 1.22541 35.526 1.02654 36.2169 1.02654C36.8704 1.02654 37.4118 1.20647 37.8412 1.56632C38.2893 1.90723 38.5227 2.40912 38.5414 3.072C39.4563 1.67048 40.8566 0.969727 42.7424 0.969727C44.7402 0.969727 46.0751 1.79359 46.7473 3.44132C47.2141 2.68374 47.8395 2.08715 48.6237 1.65154C49.4079 1.197 50.2948 0.969727 51.2843 0.969727Z" fill="black"/>
<path d="M69.4279 10.7993C69.8573 10.7993 70.2027 10.9697 70.4641 11.3106C70.7442 11.6515 70.8842 12.0966 70.8842 12.6459C70.8842 13.4034 70.5201 13.9811 69.792 14.3788C69.1572 14.7008 68.401 14.9754 67.5235 15.2027C66.6646 15.411 65.8711 15.5152 65.1429 15.5152C63.6119 15.5152 62.2769 15.2216 61.138 14.6345C59.9991 14.0474 59.1215 13.2046 58.5054 12.1061C57.8892 11.0076 57.5812 9.71973 57.5812 8.24245C57.5812 6.84094 57.8706 5.59094 58.4494 4.49245C59.0468 3.37503 59.8684 2.51329 60.9139 1.90723C61.9782 1.28223 63.1731 0.969727 64.4988 0.969727C65.7871 0.969727 66.9167 1.25382 67.8875 1.822C68.8584 2.39018 69.6053 3.1951 70.1281 4.23677C70.6695 5.27844 70.9402 6.50003 70.9402 7.90154C70.9402 8.33715 70.8376 8.67806 70.6322 8.92427C70.4455 9.15155 70.1654 9.26518 69.792 9.26518H62.3983C62.529 10.1743 62.8184 10.8277 63.2665 11.2254C63.7146 11.6231 64.3774 11.822 65.2549 11.822C65.7217 11.822 66.1511 11.7747 66.5432 11.68C66.9353 11.5663 67.3741 11.4148 67.8595 11.2254C68.1396 11.1118 68.4103 11.0171 68.6717 10.9413C68.9518 10.8466 69.2038 10.7993 69.4279 10.7993ZM64.6388 4.37882C63.9853 4.37882 63.4625 4.59662 63.0704 5.03223C62.6783 5.44889 62.445 6.06442 62.3703 6.87882H66.7673C66.6553 5.21215 65.9458 4.37882 64.6388 4.37882Z" fill="black"/>
<path d="M78.6464 15.5152C77.3954 15.5152 76.3405 15.4205 75.4817 15.2311C74.6228 15.0417 73.8666 14.7387 73.2131 14.322C72.9517 14.1894 72.7464 13.9622 72.597 13.6402C72.4476 13.3182 72.3729 12.9584 72.3729 12.5606C72.3729 12.0493 72.5036 11.6326 72.765 11.3106C73.0451 10.9697 73.3905 10.7993 73.8013 10.7993C74.0813 10.7993 74.3427 10.8372 74.5855 10.9129C74.8282 10.9697 75.1269 11.0739 75.4817 11.2254C76.0791 11.4337 76.6019 11.5947 77.05 11.7084C77.5168 11.822 78.1049 11.8788 78.8144 11.8788C79.3185 11.8788 79.7106 11.8125 79.9907 11.68C80.2894 11.5284 80.4388 11.3201 80.4388 11.055C80.4388 10.8466 80.3641 10.6856 80.2147 10.572C80.084 10.4584 79.8226 10.3542 79.4306 10.2595C79.0385 10.1459 78.3757 9.99435 77.4421 9.80495C75.7804 9.48298 74.5761 9.00003 73.8293 8.35609C73.1011 7.69321 72.737 6.76518 72.737 5.572C72.737 4.70079 72.9984 3.9148 73.5212 3.21404C74.0627 2.51329 74.8002 1.96404 75.7337 1.56632C76.6673 1.16859 77.7128 0.969727 78.8704 0.969727C79.7106 0.969727 80.5228 1.07389 81.307 1.28223C82.1098 1.49056 82.8193 1.78412 83.4355 2.16291C84.0143 2.50382 84.3037 3.05306 84.3037 3.81064C84.3037 4.34094 84.1636 4.78601 83.8836 5.14586C83.6035 5.50571 83.2581 5.68564 82.8473 5.68564C82.3619 5.68564 81.7831 5.52465 81.111 5.20268C80.6628 4.99435 80.2614 4.84283 79.9067 4.74814C79.5706 4.6345 79.1692 4.57768 78.7024 4.57768C78.2356 4.57768 77.8715 4.65344 77.6101 4.80495C77.3488 4.93753 77.2181 5.13639 77.2181 5.40154C77.2181 5.70457 77.3954 5.94132 77.7502 6.11177C78.1236 6.28223 78.8518 6.47162 79.9347 6.67995C81.7458 7.00192 83.0247 7.49435 83.7716 8.15723C84.5184 8.80117 84.8918 9.73867 84.8918 10.9697C84.8918 12.3523 84.3224 13.4603 83.1834 14.2936C82.0632 15.108 80.5508 15.5152 78.6464 15.5152Z" fill="black"/>
<path d="M93.2828 15.5152C91.7705 15.5152 90.4355 15.2216 89.2779 14.6345C88.139 14.0284 87.2521 13.1762 86.6173 12.0777C86.0011 10.9792 85.6931 9.69132 85.6931 8.21404C85.6931 6.73677 86.0011 5.45836 86.6173 4.37882C87.2521 3.28033 88.139 2.43753 89.2779 1.85041C90.4168 1.26329 91.7518 0.969727 93.2828 0.969727C94.8138 0.969727 96.1488 1.26329 97.2877 1.85041C98.4267 2.43753 99.3042 3.28033 99.9203 4.37882C100.555 5.45836 100.873 6.73677 100.873 8.21404C100.873 9.69132 100.555 10.9792 99.9203 12.0777C99.3042 13.1762 98.4267 14.0284 97.2877 14.6345C96.1488 15.2216 94.8138 15.5152 93.2828 15.5152ZM93.2828 11.7368C95.0565 11.7368 95.9434 10.5625 95.9434 8.21404C95.9434 5.86556 95.0565 4.69132 93.2828 4.69132C91.5091 4.69132 90.6222 5.86556 90.6222 8.21404C90.6222 10.5625 91.5091 11.7368 93.2828 11.7368Z" fill="black"/>
<path d="M111.189 0.969727C112.832 0.969727 114.055 1.47162 114.858 2.47541C115.661 3.46026 116.062 4.96594 116.062 6.99245V13.1288C116.062 13.8485 115.838 14.4167 115.39 14.8334C114.942 15.25 114.335 15.4584 113.57 15.4584C112.804 15.4584 112.197 15.25 111.749 14.8334C111.301 14.4167 111.077 13.8485 111.077 13.1288V7.21973C111.077 6.38639 110.928 5.78033 110.629 5.40154C110.349 5.02276 109.919 4.83336 109.341 4.83336C108.594 4.83336 107.996 5.07957 107.548 5.572C107.119 6.04548 106.904 6.68942 106.904 7.50382V13.1288C106.904 13.8485 106.68 14.4167 106.232 14.8334C105.784 15.25 105.177 15.4584 104.411 15.4584C103.646 15.4584 103.039 15.25 102.591 14.8334C102.143 14.4167 101.919 13.8485 101.919 13.1288V3.29927C101.919 2.63639 102.152 2.09662 102.619 1.67995C103.086 1.24435 103.693 1.02654 104.439 1.02654C105.149 1.02654 105.709 1.22541 106.12 1.62313C106.549 2.02086 106.764 2.5417 106.764 3.18564C107.249 2.46594 107.875 1.9167 108.64 1.53791C109.406 1.15912 110.255 0.969727 111.189 0.969727Z" fill="black"/>
<path d="M26.8303 14.966V3.37005C26.8303 1.50882 25.3215 0 23.4603 0C22.5625 0 21.7018 0.358217 21.0692 0.995197L10.5326 11.6038C10.1302 12.009 10.1333 12.6639 10.5396 13.0652L11.364 13.8795C13.3808 15.8715 16.6269 15.8635 18.6338 13.8615L22.6214 9.88373C22.8107 9.69491 23.1155 9.68971 23.3111 9.87196C23.5147 10.0617 23.5228 10.3816 23.3291 10.5814L21.984 11.9687C21.786 12.1728 21.7906 12.4987 21.9942 12.6972L25.0779 15.7048C25.7316 16.3423 26.8303 15.8792 26.8303 14.966Z" fill="url(#paint0_linear_8_5)"/>
<path d="M0 1.07255V12.6176C0 14.4829 1.51211 15.995 3.3774 15.995C4.27097 15.995 5.12813 15.6409 5.76116 15.0102L16.29 4.52019C16.696 4.11565 16.6946 3.45775 16.2869 3.05497L15.4663 2.2445C13.4495 0.252452 10.2034 0.260473 8.19648 2.26247L4.20891 6.24027C4.01963 6.42909 3.71487 6.43429 3.51926 6.25204C3.31563 6.06233 3.30751 5.74238 3.50124 5.54258L4.8508 4.15073C5.047 3.94838 5.04452 3.62603 4.84523 3.42673L1.76166 0.342893C1.11159 -0.307233 0 0.153172 0 1.07255Z" fill="url(#paint1_linear_8_5)"/>
</g>
<defs>
<linearGradient id="paint0_linear_8_5" x1="0" y1="0" x2="27.2049" y2="0.664499" gradientUnits="userSpaceOnUse">
<stop stop-color="#06C17E"/>
<stop offset="1" stop-color="#06C1A8"/>
</linearGradient>
<linearGradient id="paint1_linear_8_5" x1="0" y1="0" x2="27.2049" y2="0.664499" gradientUnits="userSpaceOnUse">
<stop stop-color="#06C17E"/>
<stop offset="1" stop-color="#06C1A8"/>
</linearGradient>
<clipPath id="clip0_8_5">
<rect width="116" height="16" fill="white"/>
</clipPath>
</defs>
</svg>
